<svg width="184" height="69" viewBox="0 0 184 69" fill="none" xmlns="http://www.w3.org/2000/svg">
<g clip-path="url(#clip0_22_3)">
<path d="M0 0V68.7595H69.2168V0H0ZM6.32448 59.7826L20.712 36.7038L35.0955 59.7826H6.32448ZM20.712 31.7679L6.32448 8.68906H35.0955L20.712 31.7679ZM50.6869 8.68906H62.2508V31.7679H50.6869C35.4915 31.5117 35.4836 8.94926 50.6869 8.68906ZM51.4909 60.0704H39.927V36.9916H51.4909C66.6942 37.2479 66.6862 59.8142 51.4909 60.0704Z" fill="white"/>
<path d="M154.164 5.03052H150.121V8.80734H154.164V5.03052Z" fill="white"/>
<path d="M183.921 14.6776H180.044V18.7501H183.921V14.6776Z" fill="white"/>
<path d="M105.802 0H101.945V3.77683H105.802V0Z" fill="white"/>
<path d="M95.8977 0L90.496 14.236H90.3812L84.9081 0H80.6152L88.0723 18.6594H92.6424L100.1 0H95.8977Z" fill="white"/>
<path d="M101.969 4.83734V18.6594H105.802V4.83734H101.969Z" fill="white"/>
<path d="M118.384 13.5461C118.032 14.9299 117.038 15.6198 115.406 15.6198C114.388 15.6198 113.568 15.2808 112.935 14.6066C112.305 13.9285 111.988 12.9784 111.988 11.7484C111.988 10.5184 112.301 9.56823 112.923 8.89014C113.549 8.21204 114.372 7.87694 115.406 7.87694C116.931 7.87694 117.901 8.49984 118.313 9.7417H122.17C121.861 8.12925 121.117 6.86374 119.932 5.94122C118.748 5.02264 117.239 4.55743 115.406 4.55743C113.96 4.55743 112.689 4.85311 111.596 5.44448C110.503 6.03584 109.656 6.87163 109.058 7.94396C108.456 9.02024 108.159 10.2858 108.159 11.7444C108.159 13.2031 108.464 14.4726 109.07 15.5449C109.675 16.6212 110.523 17.453 111.608 18.0444C112.693 18.6397 113.96 18.9314 115.406 18.9314C117.315 18.9314 118.859 18.4584 120.047 17.5043C121.235 16.5542 121.964 15.2335 122.241 13.5422H118.388L118.384 13.5461Z" fill="white"/>
<path d="M129.029 15.6632V7.82961H132.189V4.83732H128.981V0.689911H125.243V4.83732H122.819V7.82961H125.195V15.6159C125.195 16.6448 125.469 17.4097 126.015 17.9064C126.562 18.4031 127.326 18.6555 128.312 18.6555H132.514V15.6592H129.029V15.6632Z" fill="white"/>
<path d="M147.796 7.92424C147.194 6.84797 146.339 6.02006 145.234 5.43659C144.125 4.85311 142.818 4.56137 141.309 4.56137C139.801 4.56137 138.466 4.85311 137.349 5.43659C136.232 6.02006 135.369 6.84797 134.755 7.92424C134.138 9.00052 133.829 10.266 133.829 11.7247C133.829 13.1834 134.138 14.4765 134.755 15.5489C135.369 16.6251 136.236 17.457 137.349 18.0483C138.466 18.6436 139.777 18.9354 141.286 18.9354C142.795 18.9354 144.101 18.6476 145.21 18.0602C146.319 17.4767 147.179 16.6409 147.784 15.5607C148.394 14.4765 148.699 13.2071 148.699 11.7484C148.699 10.2897 148.398 9.00052 147.8 7.92424H147.796ZM143.939 14.5711C143.321 15.2689 142.438 15.6198 141.282 15.6198C140.125 15.6198 139.215 15.2689 138.593 14.5711C137.971 13.8733 137.658 12.9232 137.658 11.7247C137.658 10.5262 137.971 9.60765 138.593 8.91379C139.215 8.22387 140.113 7.88088 141.282 7.88088C142.45 7.88088 143.321 8.22387 143.939 8.9059C144.553 9.59188 144.862 10.5302 144.862 11.7287C144.862 12.9272 144.553 13.8733 143.939 14.5751V14.5711Z" fill="white"/>
<path d="M159.594 4.67569C158.576 4.67569 157.669 4.91618 156.87 5.40109C156.066 5.88207 155.491 6.60353 155.139 7.55365H154.169V8.70483H152.185V18.6555H155.947V11.6774C155.947 10.5696 156.228 9.6786 156.786 9.00445C157.349 8.32636 158.228 7.99125 159.428 7.99125H160.766V4.67569H159.59H159.594Z" fill="white"/>
<path d="M162.917 4.83734V18.6594H166.75V4.83734H162.917Z" fill="white"/>
<path d="M180.671 5.95305C179.577 5.02658 178.005 4.55743 175.962 4.55743C174.097 4.55743 172.604 4.94773 171.483 5.73227C170.362 6.51287 169.645 7.66405 169.336 9.18582H173.146C173.471 8.10954 174.409 7.57337 175.962 7.57337C177.748 7.57337 178.639 8.31849 178.639 9.80478V10.337H174.667C172.881 10.337 171.511 10.7036 170.56 11.4448C169.606 12.182 169.126 13.2347 169.126 14.5987C169.126 15.9628 169.586 16.9484 170.513 17.733C171.435 18.5175 172.714 18.9078 174.342 18.9078C175.546 18.9078 176.544 18.691 177.344 18.2534C178.144 17.8157 178.781 17.1968 179.261 16.3965H180.231V14.8353H182.306V9.97036C182.306 8.21993 181.76 6.87951 180.667 5.9491L180.671 5.95305ZM178.639 13.0849C178.639 13.897 178.29 14.5909 177.586 15.1586C176.885 15.7263 175.997 16.0101 174.92 16.0101C174.259 16.0101 173.732 15.8721 173.348 15.5962C172.964 15.3163 172.774 14.926 172.774 14.4213C172.774 13.3924 173.467 12.8799 174.853 12.8799H178.639V13.0888V13.0849Z" fill="white"/>
<path d="M166.75 0H162.917V3.77683H166.75V0Z" fill="white"/>
<path d="M94.1355 40.2086C93.3078 40.7921 92.2583 41.0838 90.9911 41.0838C89.1693 41.0838 87.7318 40.5043 86.6784 39.3452C85.621 38.1862 85.0943 36.5855 85.0943 34.5434C85.0943 32.5012 85.621 30.8809 86.6784 29.7297C87.7318 28.5785 89.1693 28.0029 90.9911 28.0029C92.2583 28.0029 93.3078 28.2947 94.1355 28.8781C94.9632 29.4616 95.4661 30.2738 95.6483 31.3106H99.9332C99.5927 29.1541 98.6224 27.4549 97.0225 26.217C95.4225 24.9791 93.4108 24.3562 90.9911 24.3562C88.9793 24.3562 87.217 24.7741 85.7121 25.6099C84.2111 26.4457 83.0429 27.6245 82.2152 29.1462C81.3875 30.668 80.9717 32.4697 80.9717 34.5473C80.9717 36.625 81.3875 38.3991 82.2152 39.9208C83.0468 41.4465 84.2111 42.6253 85.7121 43.4611C87.217 44.2929 88.9753 44.7148 90.9911 44.7148C93.4108 44.7148 95.4225 44.0998 97.0225 42.8658C98.6224 41.6358 99.5927 39.9326 99.9332 37.7604H95.6483C95.4661 38.813 94.9632 39.633 94.1355 40.2165V40.2086Z" fill="white"/>
<path d="M115.825 33.0098C115.192 31.8744 114.289 30.9991 113.121 30.3841C111.952 29.7691 110.57 29.4616 108.978 29.4616C107.386 29.4616 105.976 29.7691 104.796 30.3841C103.62 30.9991 102.705 31.8744 102.056 33.0098C101.406 34.1452 101.082 35.4817 101.082 37.0231C101.082 38.5646 101.406 39.9248 102.056 41.0602C102.705 42.1956 103.62 43.0747 104.796 43.6976C105.972 44.3205 107.358 44.6359 108.951 44.6359C110.543 44.6359 111.925 44.3284 113.093 43.7095C114.265 43.0944 115.168 42.2153 115.814 41.072C116.451 39.9287 116.776 38.5883 116.776 37.0468C116.776 35.5053 116.459 34.1412 115.825 33.0098ZM111.754 40.0273C111.105 40.7645 110.174 41.1351 108.951 41.1351C107.727 41.1351 106.768 40.7645 106.111 40.0273C105.45 39.29 105.125 38.2887 105.125 37.0271C105.125 35.7655 105.454 34.7878 106.111 34.0585C106.768 33.3291 107.715 32.9625 108.951 32.9625C110.186 32.9625 111.105 33.3252 111.754 34.0466C112.404 34.7681 112.729 35.7616 112.729 37.0271C112.729 38.2926 112.404 39.29 111.754 40.0273Z" fill="white"/>
<path d="M119.263 23.9146V44.3403H123.311V23.9146H119.263Z" fill="white"/>
<path d="M126.669 23.9146V44.3403H130.716V23.9146H126.669Z" fill="white"/>
<path d="M148.165 36.7314C148.165 34.4763 147.515 32.7023 146.216 31.4052C144.917 30.1082 143.12 29.4616 140.831 29.4616C139.27 29.4616 137.916 29.7691 136.775 30.3841C135.627 30.9991 134.744 31.8704 134.13 32.9979C133.512 34.1255 133.203 35.458 133.203 36.9995C133.203 38.541 133.52 39.905 134.154 41.0483C134.787 42.1916 135.682 43.0747 136.847 43.7016C138.007 44.3245 139.385 44.6399 140.977 44.6399C142.894 44.6399 144.482 44.1944 145.741 43.3152C147.001 42.4282 147.793 41.21 148.117 39.6527H144.07C143.646 40.8355 142.605 41.4308 140.949 41.4308C139.844 41.4308 138.961 41.1469 138.304 40.5753C137.646 40.0075 137.235 39.1836 137.072 38.0955H148.161V36.7314H148.165ZM137.175 35.4186C137.611 33.5696 138.839 32.6471 140.854 32.6471C142.87 32.6471 144.011 33.5735 144.292 35.4186H137.175Z" fill="white"/>
<path d="M163.226 33.7391V32.1346H162.2C161.681 31.2791 160.984 30.6167 160.105 30.1555C159.226 29.6942 158.18 29.4616 156.96 29.4616C154.766 29.4616 153.04 30.1318 151.78 31.4801C150.521 32.8284 149.891 34.634 149.891 36.9049C149.891 38.4266 150.173 39.7434 150.735 40.8552C151.293 41.9669 152.081 42.8264 153.095 43.4335C154.113 44.0406 155.309 44.3442 156.691 44.3442C158.838 44.3442 160.362 43.5518 161.273 41.963H161.396V43.9066C161.396 44.9907 161.059 45.8265 160.386 46.4021C159.709 46.9738 158.739 47.2616 157.471 47.2616C155.602 47.2616 154.473 46.6623 154.085 45.4638H149.796C150.054 47.0369 150.874 48.2629 152.244 49.146C153.618 50.0331 155.4 50.4707 157.594 50.4707C160.061 50.4707 161.966 49.903 163.309 48.7715C164.647 47.6361 165.317 46.0276 165.317 43.9539V33.7391H163.222H163.226ZM161.277 37.3858C161.277 38.4542 160.96 39.3019 160.315 39.9129C159.673 40.5319 158.798 40.8394 157.697 40.8394C156.513 40.8394 155.59 40.4964 154.929 39.8183C154.271 39.1363 153.943 38.1743 153.943 36.9246C153.943 35.6748 154.271 34.705 154.929 34.0072C155.59 33.3094 156.509 32.9585 157.697 32.9585C158.802 32.9585 159.673 33.266 160.315 33.8732C160.956 34.4803 161.277 35.3121 161.277 36.3648V37.3858Z" fill="white"/>
<path d="M183.747 36.7314C183.747 34.4763 183.098 32.7023 181.795 31.4052C180.496 30.1082 178.698 29.4616 176.409 29.4616C174.849 29.4616 173.498 29.7691 172.354 30.3841C171.205 30.9991 170.326 31.8704 169.708 32.9979C169.091 34.1255 168.782 35.458 168.782 36.9995C168.782 38.541 169.099 39.905 169.732 41.0483C170.366 42.1916 171.265 43.0747 172.425 43.7016C173.585 44.3245 174.964 44.6399 176.556 44.6399C178.472 44.6399 180.06 44.1944 181.32 43.3152C182.579 42.4282 183.371 41.21 183.696 39.6527H179.649C179.225 40.8355 178.183 41.4308 176.528 41.4308C175.423 41.4308 174.544 41.1469 173.883 40.5753C173.225 40.0075 172.813 39.1836 172.651 38.0955H183.74V36.7314H183.747ZM172.758 35.4186C173.193 33.5696 174.421 32.6471 176.437 32.6471C178.453 32.6471 179.597 33.5735 179.874 35.4186H172.758Z" fill="white"/>
<path d="M167.225 30.0293H163.229V34.019H167.225V30.0293Z" fill="white"/>
<path d="M86.5121 61.0324C86.318 60.6618 86.0448 60.3819 85.6884 60.1848C85.3359 59.9877 84.9122 59.893 84.429 59.893C83.9855 59.893 83.5855 59.9601 83.233 60.102C82.8766 60.2439 82.5677 60.4371 82.3024 60.6894C82.037 60.9417 81.8153 61.2374 81.6371 61.5764C81.4589 61.9194 81.3282 62.29 81.241 62.6921C81.1539 63.0943 81.1104 63.5201 81.1104 63.9616C81.1104 64.4544 81.2094 64.8841 81.4153 65.2429C81.6173 65.6016 81.9024 65.8776 82.2588 66.0708C82.6192 66.264 83.035 66.3625 83.5063 66.3625C83.9776 66.3625 84.3657 66.2916 84.7221 66.1536C85.0785 66.0156 85.3874 65.8185 85.6488 65.5662C85.9101 65.3138 86.128 65.0221 86.2982 64.6831C86.4685 64.344 86.5953 63.9813 86.6824 63.5871C86.7656 63.1928 86.8091 62.7868 86.8091 62.361C86.8091 61.8406 86.7101 61.3951 86.5161 61.0285L86.5121 61.0324ZM85.0429 63.1534C84.9993 63.4097 84.9399 63.6501 84.8607 63.8709C84.7775 64.0917 84.6785 64.2888 84.5597 64.4583C84.4409 64.6279 84.3023 64.758 84.1518 64.8565C84.0013 64.9511 83.831 64.9985 83.6409 64.9985C83.3558 64.9985 83.1459 64.9117 83.0113 64.7383C82.8727 64.5648 82.8053 64.3046 82.8053 63.9655C82.8053 63.7369 82.8251 63.5003 82.8647 63.252C82.9043 63.0036 82.9637 62.7631 83.039 62.5305C83.1182 62.2979 83.2172 62.085 83.336 61.8958C83.4548 61.7065 83.5974 61.5528 83.7597 61.4385C83.9221 61.3241 84.1043 61.2689 84.3102 61.2689C84.5161 61.2689 84.6666 61.3162 84.7815 61.4109C84.9003 61.5055 84.9835 61.6356 85.0349 61.8012C85.0864 61.9667 85.1102 62.156 85.1102 62.3689C85.1102 62.637 85.0864 62.9011 85.0468 63.1573L85.0429 63.1534Z" fill="white"/>
<path d="M92.2308 57.5749C92.013 57.5236 91.7754 57.5 91.518 57.5C91.213 57.5 90.9358 57.5355 90.6863 57.6064C90.4368 57.6774 90.219 57.7917 90.0289 57.9494C89.8388 58.1071 89.6764 58.32 89.5418 58.5802C89.4032 58.8404 89.2963 59.1598 89.2131 59.5422L89.1101 60.0113L88.0844 60.4805L87.9181 61.2887H88.829L87.6884 66.6779C87.6171 67.0091 87.4944 67.2496 87.3241 67.3994C87.1538 67.5492 86.9518 67.628 86.7221 67.628C86.6152 67.628 86.5083 67.6162 86.4093 67.6004C86.3103 67.5807 86.1994 67.5531 86.0806 67.5137V68.866C86.1954 68.9014 86.3419 68.9369 86.5202 68.9645C86.6984 68.9921 86.8766 69.0039 87.0548 69.0039C87.526 69.0039 87.9142 68.9133 88.2151 68.724C88.5201 68.5387 88.7616 68.2864 88.9319 67.975C89.1062 67.6596 89.2329 67.3126 89.3081 66.9342L90.5121 61.2926H91.7437L92.0169 60.0113H90.7893L90.8566 59.6644C90.9002 59.4239 90.9912 59.2268 91.118 59.077C91.2487 58.9311 91.419 58.8522 91.6328 58.8522C91.7833 58.8522 91.9179 58.868 92.0367 58.9035C92.1556 58.935 92.2704 58.9784 92.3773 59.0257L92.8248 57.776C92.6427 57.6892 92.4407 57.6222 92.2229 57.5749H92.2308Z" fill="white"/>
<path d="M99.5727 58.0519H97.45L94.5591 66.2521H96.4283L97.0223 64.3085H100.004L100.598 66.2521H102.468L99.5688 58.0519H99.5727ZM97.4619 62.8577L98.048 60.9575C98.0758 60.8708 98.1154 60.7288 98.1748 60.5278C98.2342 60.3267 98.2975 60.1138 98.3649 59.8891C98.4282 59.6644 98.4797 59.4752 98.5193 59.3214C98.5549 59.4752 98.6064 59.6526 98.6658 59.8615C98.7252 60.0665 98.7886 60.2715 98.852 60.4686C98.9114 60.6697 98.9628 60.8313 98.9985 60.9575L99.5925 62.8577H97.4619Z" fill="white"/>
<path d="M107.157 59.9049C107.042 59.897 106.943 59.893 106.856 59.893C106.578 59.893 106.321 59.9443 106.087 60.0507C105.85 60.1572 105.64 60.2991 105.454 60.4765C105.268 60.6539 105.113 60.8471 104.994 61.06H104.911L104.658 60.0074H103.367V66.2521H105.074V63.0746C105.074 62.7789 105.121 62.5305 105.216 62.3294C105.311 62.1284 105.442 61.9628 105.604 61.8366C105.771 61.7144 105.953 61.6238 106.163 61.5646C106.369 61.5094 106.582 61.4818 106.804 61.4818C106.879 61.4818 106.967 61.4818 107.07 61.4937C107.172 61.5055 107.252 61.5173 107.307 61.537L107.434 59.9403C107.363 59.9246 107.271 59.9127 107.157 59.9049Z" fill="white"/>
<path d="M111.751 64.9511C111.576 64.9866 111.394 65.0063 111.204 65.0063C110.978 65.0063 110.8 64.9472 110.662 64.8329C110.527 64.7146 110.46 64.5372 110.46 64.2967V61.2886H112.21V60.0074H110.46V58.6788H109.371L108.88 59.9955L107.937 60.5672V61.2886H108.753V64.2967C108.753 64.8329 108.84 65.2508 109.01 65.5504C109.181 65.85 109.41 66.0629 109.711 66.1812C110.008 66.3034 110.341 66.3625 110.717 66.3625C111.038 66.3625 111.335 66.3349 111.604 66.2797C111.873 66.2245 112.099 66.1575 112.285 66.0787V64.8092C112.111 64.8644 111.933 64.9117 111.755 64.9511H111.751Z" fill="white"/>
<path d="M117.699 63.4964C117.557 63.2638 117.355 63.0667 117.093 62.909C116.836 62.7513 116.523 62.5975 116.17 62.4517C115.806 62.3019 115.529 62.1796 115.339 62.085C115.149 61.9904 115.022 61.9037 114.959 61.8248C114.891 61.746 114.86 61.6553 114.86 61.5567C114.86 61.4188 114.923 61.3162 115.05 61.2492C115.176 61.1822 115.366 61.1467 115.616 61.1467C115.901 61.1467 116.178 61.1901 116.452 61.2768C116.725 61.3636 117.018 61.4739 117.327 61.608L117.842 60.378C117.469 60.2084 117.105 60.0823 116.753 60.0034C116.4 59.9246 116.028 59.8891 115.64 59.8891C114.887 59.8891 114.285 60.035 113.834 60.3267C113.386 60.6184 113.161 61.0561 113.161 61.6316C113.161 61.9865 113.22 62.2743 113.343 62.5069C113.462 62.7355 113.652 62.9326 113.901 63.1022C114.155 63.2717 114.475 63.4373 114.868 63.5989C115.271 63.7684 115.572 63.9104 115.763 64.0129C115.953 64.1193 116.079 64.2139 116.135 64.2967C116.194 64.3795 116.222 64.4741 116.222 64.5806C116.222 64.7422 116.151 64.8684 116.008 64.9669C115.865 65.0655 115.628 65.1167 115.295 65.1167C114.998 65.1167 114.658 65.0655 114.266 64.9669C113.877 64.8684 113.513 64.7422 113.173 64.5924V65.9998C113.489 66.1299 113.802 66.2245 114.119 66.2797C114.432 66.3349 114.804 66.3665 115.24 66.3665C115.83 66.3665 116.325 66.2916 116.717 66.1378C117.113 65.988 117.41 65.7672 117.608 65.4755C117.81 65.1838 117.909 64.825 117.909 64.3992C117.909 64.0286 117.838 63.729 117.695 63.4964H117.699Z" fill="white"/>
<path d="M126.716 60.4252C126.269 60.0625 125.627 59.8812 124.784 59.8812C124.344 59.8812 123.92 59.9324 123.505 60.031C123.093 60.1335 122.72 60.2715 122.388 60.445L122.954 61.5961C123.243 61.466 123.536 61.3596 123.829 61.2729C124.118 61.1861 124.415 61.1428 124.72 61.1428C125.025 61.1428 125.267 61.2177 125.437 61.3714C125.607 61.5252 125.695 61.7657 125.695 62.0929V62.3649L124.609 62.4004C123.675 62.4319 122.974 62.6054 122.511 62.9208C122.043 63.2362 121.81 63.7211 121.81 64.3874C121.81 64.8368 121.893 65.2074 122.063 65.5031C122.229 65.7948 122.463 66.0116 122.752 66.1536C123.045 66.2955 123.378 66.3665 123.746 66.3665C124.095 66.3665 124.388 66.3349 124.633 66.264C124.875 66.1969 125.093 66.0944 125.275 65.9525C125.461 65.8106 125.647 65.6292 125.821 65.4045H125.869L126.198 66.2521H127.39V62.0929C127.39 61.3478 127.164 60.7919 126.72 60.4292L126.716 60.4252ZM125.695 63.8749C125.695 64.273 125.568 64.5805 125.318 64.7974C125.065 65.0142 124.756 65.1207 124.392 65.1207C124.146 65.1207 123.944 65.0655 123.79 64.9551C123.639 64.8447 123.56 64.6594 123.56 64.3992C123.56 64.0996 123.667 63.8591 123.881 63.6777C124.095 63.4964 124.479 63.3978 125.029 63.3821L125.691 63.3584V63.8709L125.695 63.8749Z" fill="white"/>
<path d="M134.312 60.4371C133.908 60.0744 133.369 59.893 132.7 59.893C132.439 59.893 132.185 59.9246 131.944 59.9877C131.698 60.0507 131.477 60.1493 131.278 60.2833C131.077 60.4174 130.91 60.5908 130.78 60.8077H130.684L130.455 60.0074H129.152V66.2521H130.859V63.315C130.859 62.6488 130.954 62.1402 131.144 61.7854C131.334 61.4345 131.69 61.2571 132.213 61.2571C132.558 61.2571 132.815 61.3714 132.977 61.5962C133.14 61.8248 133.223 62.1599 133.223 62.6094V66.2561H134.93V62.1836C134.93 61.3833 134.728 60.8037 134.32 60.441L134.312 60.4371Z" fill="white"/>
<path d="M140.434 57.5631V59.5619C140.434 59.8063 140.45 60.0468 140.482 60.2794C140.514 60.512 140.537 60.6894 140.561 60.8077H140.506C140.391 60.6382 140.248 60.4844 140.082 60.3464C139.916 60.2084 139.718 60.098 139.492 60.0153C139.262 59.9325 139.001 59.893 138.704 59.893C137.987 59.893 137.409 60.169 136.961 60.717C136.518 61.265 136.296 62.0771 136.296 63.1455C136.296 64.2139 136.514 65.0024 136.953 65.5504C137.393 66.0945 137.959 66.3704 138.656 66.3704C138.957 66.3704 139.222 66.331 139.444 66.2482C139.67 66.1654 139.86 66.055 140.022 65.917C140.185 65.7751 140.319 65.6214 140.426 65.4518H140.498L140.826 66.26H142.137V57.571H140.426L140.434 57.5631ZM140.553 63.3348C140.541 63.8946 140.438 64.3125 140.248 64.5885C140.054 64.8684 139.725 65.0063 139.258 65.0063C138.866 65.0063 138.565 64.8526 138.347 64.5451C138.133 64.2336 138.027 63.7763 138.027 63.1652C138.027 62.5542 138.133 62.089 138.347 61.7657C138.561 61.4424 138.854 61.2808 139.23 61.2808C139.737 61.2808 140.086 61.4424 140.272 61.7657C140.458 62.085 140.553 62.5502 140.553 63.1613V63.3426V63.3348Z" fill="white"/>
<path d="M153.317 59.8891C152.969 59.2938 152.482 58.8483 151.852 58.5447C151.218 58.2412 150.478 58.0874 149.619 58.0874H147.048V66.2521H149.365C150.308 66.2521 151.112 66.0984 151.777 65.7869C152.442 65.4755 152.953 65.0142 153.305 64.3953C153.658 63.7802 153.832 63.0115 153.832 62.0929C153.832 61.1743 153.662 60.4844 153.313 59.8891H153.317ZM151.416 64.1469C151.005 64.5963 150.375 64.821 149.527 64.821H148.783V59.5067H149.706C150.213 59.5067 150.64 59.5973 150.985 59.7866C151.329 59.9719 151.591 60.2597 151.769 60.65C151.947 61.0403 152.034 61.537 152.034 62.1363C152.034 63.0272 151.828 63.6975 151.416 64.1469Z" fill="white"/>
<path d="M160.782 62.7276C160.782 62.1205 160.667 61.608 160.442 61.1861C160.212 60.7643 159.891 60.445 159.471 60.2242C159.055 60.0034 158.557 59.893 157.978 59.893C157.4 59.893 156.869 60.0153 156.43 60.2597C155.986 60.5041 155.638 60.8668 155.392 61.3557C155.143 61.8406 155.02 62.4477 155.02 63.181C155.02 63.9143 155.159 64.4938 155.432 64.9669C155.705 65.44 156.085 65.7909 156.568 66.0235C157.052 66.2521 157.606 66.3704 158.232 66.3704C158.711 66.3704 159.123 66.3349 159.459 66.264C159.796 66.193 160.121 66.0826 160.43 65.9289V64.6121C160.081 64.7777 159.737 64.896 159.404 64.9827C159.071 65.0655 158.707 65.1049 158.307 65.1049C157.824 65.1049 157.448 64.9669 157.178 64.6949C156.909 64.4189 156.763 64.0444 156.747 63.5634H160.782V62.7355V62.7276ZM156.786 62.4201C156.818 61.9628 156.945 61.6316 157.163 61.4187C157.38 61.2059 157.654 61.0994 157.99 61.0994C158.259 61.0994 158.477 61.1546 158.652 61.2729C158.822 61.3872 158.956 61.5449 159.044 61.742C159.131 61.9391 159.178 62.1639 159.182 62.4201H156.786Z" fill="white"/>
<path d="M166.323 63.4964C166.18 63.2638 165.978 63.0667 165.717 62.909C165.455 62.7513 165.146 62.5975 164.794 62.4517C164.426 62.3019 164.152 62.1796 163.962 62.085C163.772 61.9904 163.645 61.9037 163.582 61.8248C163.515 61.746 163.483 61.6553 163.483 61.5567C163.483 61.4188 163.546 61.3162 163.673 61.2492C163.8 61.1822 163.99 61.1467 164.24 61.1467C164.525 61.1467 164.802 61.1901 165.075 61.2768C165.348 61.3636 165.641 61.4739 165.95 61.608L166.465 60.378C166.093 60.2084 165.729 60.0823 165.376 60.0034C165.024 59.9246 164.651 59.8891 164.263 59.8891C163.511 59.8891 162.909 60.035 162.457 60.3267C162.01 60.6184 161.784 61.0561 161.784 61.6316C161.784 61.9865 161.844 62.2743 161.966 62.5069C162.089 62.7355 162.275 62.9326 162.529 63.1022C162.782 63.2717 163.103 63.4373 163.495 63.5989C163.899 63.7684 164.2 63.9104 164.39 64.0129C164.58 64.1193 164.707 64.2139 164.762 64.2967C164.818 64.3795 164.849 64.4741 164.849 64.5806C164.849 64.7422 164.778 64.8684 164.636 64.9669C164.493 65.0655 164.255 65.1167 163.919 65.1167C163.626 65.1167 163.285 65.0655 162.893 64.9669C162.501 64.8684 162.141 64.7422 161.8 64.5924V65.9998C162.117 66.1299 162.434 66.2245 162.747 66.2797C163.059 66.3349 163.432 66.3665 163.867 66.3665C164.457 66.3665 164.948 66.2916 165.344 66.1378C165.74 65.988 166.037 65.7672 166.235 65.4755C166.437 65.1838 166.536 64.825 166.536 64.3992C166.536 64.0286 166.465 63.729 166.323 63.4964Z" fill="white"/>
<path d="M169.38 57.7365C169.198 57.6183 168.98 57.5631 168.723 57.5631C168.465 57.5631 168.247 57.6183 168.065 57.7365C167.883 57.8548 167.792 58.0717 167.792 58.3949C167.792 58.7182 167.883 58.9311 168.065 59.0533C168.247 59.1716 168.465 59.2347 168.723 59.2347C168.98 59.2347 169.194 59.1755 169.38 59.0533C169.562 58.9311 169.653 58.7143 169.653 58.3949C169.653 58.0756 169.562 57.8548 169.38 57.7365ZM167.867 60.0074V66.2521H169.574V60.0074H167.867Z" fill="white"/>
<path d="M176.809 60.0074H174.627C174.583 59.9955 174.496 59.9798 174.366 59.964C174.239 59.9443 174.096 59.9285 173.942 59.9128C173.791 59.897 173.657 59.8891 173.542 59.8891C172.995 59.8891 172.528 59.9719 172.144 60.1414C171.76 60.3109 171.471 60.5514 171.269 60.8708C171.071 61.1901 170.972 61.5764 170.972 62.0298C170.972 62.4556 171.067 62.8222 171.257 63.1337C171.451 63.4491 171.712 63.6738 172.037 63.8157C171.776 63.9695 171.578 64.1232 171.439 64.2809C171.3 64.4386 171.233 64.6358 171.233 64.8762C171.233 65.0655 171.296 65.2468 171.431 65.4163C171.562 65.5859 171.716 65.7081 171.89 65.783C171.435 65.8934 171.091 66.0708 170.857 66.327C170.623 66.5794 170.504 66.8948 170.504 67.2693C170.504 67.8133 170.734 68.2391 171.193 68.5466C171.653 68.8502 172.322 69 173.193 69C174.338 69 175.213 68.7989 175.823 68.3968C176.433 67.9947 176.738 67.427 176.738 66.7016C176.738 66.1299 176.56 65.7002 176.195 65.4045C175.835 65.1088 175.312 64.963 174.627 64.963H173.566C173.356 64.963 173.182 64.9472 173.043 64.9196C172.904 64.892 172.797 64.8526 172.73 64.7974C172.663 64.7422 172.627 64.6752 172.627 64.5963C172.627 64.5175 172.651 64.4347 172.694 64.3637C172.742 64.2888 172.805 64.2179 172.892 64.1508C173.067 64.1706 173.257 64.1824 173.451 64.1942C174.282 64.1942 174.936 64.005 175.403 63.6304C175.87 63.2559 176.108 62.7355 176.108 62.0653C176.108 61.8918 176.084 61.7223 176.041 61.5686C175.997 61.4109 175.93 61.265 175.839 61.127L176.817 60.8747V60.0074H176.809ZM173.082 66.331H173.966C174.251 66.331 174.488 66.3507 174.675 66.3862C174.857 66.4217 174.995 66.4887 175.086 66.5794C175.177 66.67 175.225 66.7923 175.225 66.95C175.225 67.1431 175.146 67.3087 174.991 67.4506C174.837 67.5926 174.611 67.699 174.318 67.7739C174.025 67.8488 173.677 67.8882 173.269 67.8882C172.861 67.8882 172.544 67.8212 172.318 67.6872C172.092 67.5531 171.982 67.3678 171.982 67.1352C171.982 66.9736 172.029 66.8356 172.124 66.7134C172.223 66.5951 172.354 66.5005 172.52 66.4296C172.686 66.3625 172.873 66.331 173.082 66.331ZM174.247 62.8577C174.1 63.0549 173.863 63.1534 173.542 63.1534C173.221 63.1534 172.987 63.0549 172.833 62.8577C172.679 62.6606 172.599 62.3925 172.599 62.0535C172.599 61.6789 172.679 61.3951 172.833 61.2059C172.991 61.0166 173.225 60.922 173.538 60.922C173.851 60.922 174.08 61.0166 174.235 61.2059C174.389 61.3951 174.465 61.675 174.465 62.0535C174.465 62.3925 174.389 62.6606 174.239 62.8577H174.247Z" fill="white"/>
<path d="M183.007 60.4371C182.603 60.0744 182.064 59.893 181.395 59.893C181.134 59.893 180.88 59.9246 180.639 59.9877C180.393 60.0507 180.171 60.1493 179.973 60.2833C179.771 60.4174 179.605 60.5908 179.474 60.8077H179.379L179.15 60.0074H177.847V66.2521H179.554V63.315C179.554 62.6488 179.649 62.1402 179.839 61.7854C180.029 61.4345 180.385 61.2571 180.908 61.2571C181.256 61.2571 181.51 61.3714 181.672 61.5962C181.835 61.8248 181.914 62.1599 181.914 62.6094V66.2561H183.621V62.1836C183.621 61.3833 183.419 60.8037 183.011 60.441L183.007 60.4371Z" fill="white"/>
</g>
<defs>
<clipPath id="clip0_22_3">
<rect width="184" height="69" fill="white"/>
</clipPath>
</defs>
</svg>
